<svg width="53" height="49" viewBox="0 0 53 49" fill="none" xmlns="http://www.w3.org/2000/svg">
<path d="M41.8819 11.7871C40.5455 8.96842 38.1141 5.57037 31.893 3.50777C21.904 0.195964 15.2415 2.5 10.5 6.50001C6.57467 9.81151 3.99991 15.5 2.99996 19.5C2 23.5 2.00002 27.5 2.99999 31.5C3.8766 35.0066 7.05879 38.8974 7.83054 39.804C7.94284 39.9359 8.05568 40.0617 8.17751 40.1849C9.07525 41.0926 13.3413 45.091 20.1355 46.5239C26.5506 47.8769 31.5533 46.0306 33.558 44.9031C35.5628 43.7756 39 40.9838 40.5 38C42.1648 34.6884 42.9765 30.1756 42.9765 26.2295M42.9765 26.2295H30.1591M42.9765 26.2295H53M42.9765 26.2295L42.9765 44.2452" stroke="white" stroke-width="3"/>
<path d="M20.2352 15.0982C20.2352 15.0982 21.9001 8.26574 21.9001 8.47495C21.9001 8.6842 23.1762 14.3333 23.5649 15.0977C23.9536 15.862 25.2297 20.0651 25.2297 20.0651L26.8946 25.0326L28.5594 28.3447C28.5594 28.3447 30.2242 30.4601 30.2242 31.6559C30.2242 34.968 29.5291 35.6593 28.5594 36.6238L27.5905 37.5874C26.0785 39.0913 24.0326 39.9355 21.9001 39.9355C19.7675 39.9355 17.7216 39.0913 16.2096 37.5874L15.2408 36.6238C15.2408 36.6238 13.5759 34.968 13.5759 31.6564C13.5759 30.6436 15.2408 28.3447 15.2408 28.3447C15.2408 28.3447 16.7483 25.8034 16.9056 25.0331C16.9862 24.6384 18.5704 20.4602 18.5704 20.0651L20.2352 15.0982Z" stroke="white" stroke-width="3" stroke-linecap="round"/>
<path d="M16.9055 25.0331H26.8945" stroke="white" stroke-width="3"/>
</svg>
